<?xml version="1.0" encoding="utf-8"?>
<!-- Generator: Adobe Illustrator 19.1.0, SVG Export Plug-In . SVG Version: 6.00 Build 0)  -->
<!DOCTYPE svg PUBLIC "-//W3C//DTD SVG 1.1//EN" "http://www.w3.org/Graphics/SVG/1.1/DTD/svg11.dtd">
<svg version="1.1" id="レイヤー_1" xmlns="http://www.w3.org/2000/svg" xmlns:xlink="http://www.w3.org/1999/xlink" x="0px"
	 y="0px" width="64px" height="64px" viewBox="0 0 64 64" enable-background="new 0 0 64 64" xml:space="preserve">
<g>
	<path fill="#2E4D8E" d="M20.3,6.8c-3.4,5.3,8.2,9.8,4.5,15.3c-7.4,0-14.5,0-17.9,0s-7.4,1.7-6.8,4.8c0.8,3.6,8.2,29.7,8.7,31.2
		c1.8,3.8,6.6,2.6,9.2,1.9c2.9-1,26.9-6.5,26.9-6.5V27.2l-18.7-24C26.1,3.2,22.4,3.4,20.3,6.8z"/>
	<path fill="#2E4D8E" d="M48,22.4v32h16v-32H48z M56,51.2c-1.9,0-3.2-1.3-3.2-3.2c0-1.9,1.3-3.2,3.2-3.2s3.2,1.3,3.2,3.2
		C59.2,49.9,57.9,51.2,56,51.2z"/>
</g>
</svg>
