<?xml version="1.0" encoding="utf-8"?>
<!-- Generator: Adobe Illustrator 19.1.0, SVG Export Plug-In . SVG Version: 6.00 Build 0)  -->
<!DOCTYPE svg PUBLIC "-//W3C//DTD SVG 1.1//EN" "http://www.w3.org/Graphics/SVG/1.1/DTD/svg11.dtd">
<svg version="1.1" id="レイヤー_1" xmlns="http://www.w3.org/2000/svg" xmlns:xlink="http://www.w3.org/1999/xlink" x="0px"
	 y="0px" width="64px" height="64px" viewBox="0 0 64 64" enable-background="new 0 0 64 64" xml:space="preserve">
<path fill="#D04A39" d="M38.1,3.1h-5.4c0,0,6.9,3.6,5.9,12.5c-0.4,3.9-2.1,5.9-3.9,7.9C32,26.4,30.1,26,29.2,29
	c-0.7,2.5,1.2,3.6,3.8,5.7c2.4,1.9,5.2,4.1,6.7,6.6c2.9,4.7,2.6,12.1-3.3,17.1c-8.4,7.1-20.5,6-25.8,4.6C0.8,60.2-2.6,51.6,2.9,44.7
	c5.9-7.5,20.6-7.6,20.6-7.6c-4.5-3.8-2-8.6-2-8.6C11.8,29.3,5,24.7,4.9,15.6C4.7,5.1,13.2,0,23.5,0c10.4,0,19.7,0,19.7,0L38.1,3.1z
	 M17.8,2.7c-5.3,1.6-6.4,8.4-4.5,14.7c1.9,6.2,6.7,10,12.4,8.1c5.2-1.8,6.1-7.5,4.2-13.7C27.9,5.4,23.1,1,17.8,2.7z M26.5,39.8
	C18.2,39.5,9.1,41.6,8,48.4C7,55.1,13,59.5,20.9,60.1c7.6,0.6,14.1-2,14.9-8.2C36.6,46.3,30.6,42.7,26.5,39.8z M63.7,26.2H55v-8.7
	h-4.4v8.7h-8.7v4.4h8.7v8.7H55v-8.7h8.7V26.2z"/>
</svg>
