<?xml version="1.0" encoding="utf-8"?>
<!-- Generator: Adobe Illustrator 19.1.0, SVG Export Plug-In . SVG Version: 6.00 Build 0)  -->
<!DOCTYPE svg PUBLIC "-//W3C//DTD SVG 1.1//EN" "http://www.w3.org/Graphics/SVG/1.1/DTD/svg11.dtd">
<svg version="1.1" id="レイヤー_1" xmlns="http://www.w3.org/2000/svg" xmlns:xlink="http://www.w3.org/1999/xlink" x="0px"
	 y="0px" width="64px" height="64px" viewBox="0 0 64 64" enable-background="new 0 0 64 64" xml:space="preserve">
<path fill="#1C86C9" d="M0,6.1c0,0,15.3,0,23.6,0c10.5,0,15.7,5,15.7,12.4c0,6.2-2.5,9.8-9.7,11.6c0,0,12.3-0.6,12.3,13.2
	c0,13.6-13.1,14-21,14c-4.7,0-20.9,0-20.9,0V6.1z M22.7,49.2c3.2,0,5.7-3.1,5.7-6.3c0-3.2-2.6-6.3-5.7-6.3h-9.2v12.6H22.7z
	 M20.9,27.7c2.8,0,5.1-3,5.1-5.8c0-2.8-2.3-5.8-6.3-5.8h-6.2v11.7H20.9z M63.7,5.2H50.3v34.1h13.5V5.2z M56.8,44.4
	c-4,0-7.2,3.2-7.2,7.2c0,4,3.2,7.2,7.2,7.2c4,0,7.2-3.2,7.2-7.2C64,47.6,60.8,44.4,56.8,44.4z"/>
</svg>
