<?xml version="1.0" encoding="utf-8"?>
<!-- Generator: Adobe Illustrator 19.1.0, SVG Export Plug-In . SVG Version: 6.00 Build 0)  -->
<!DOCTYPE svg PUBLIC "-//W3C//DTD SVG 1.1//EN" "http://www.w3.org/Graphics/SVG/1.1/DTD/svg11.dtd">
<svg version="1.1" id="レイヤー_1" xmlns="http://www.w3.org/2000/svg" xmlns:xlink="http://www.w3.org/1999/xlink" x="0px"
	 y="0px" width="64px" height="64px" viewBox="0 0 64 64" enable-background="new 0 0 64 64" xml:space="preserve">
<path fill="#C85058" d="M64,9.8v17.6v0c0,17.9-14,31.9-31.2,31.9c-0.3,0-0.5,0-0.8,0c-0.3,0-0.5,0.1-0.8,0.1
	c-17.2,0-31.2-13.9-31.2-31.7H0V9.8c0-3.1,2.7-5.2,5.7-5.2h52.7C61.5,4.6,64,6.7,64,9.8z M50.5,21.5c-1.6-1.7-4.3-1.7-6-0.1L32,33.3
	l-12.5-12c-1.7-1.6-4.4-1.6-6,0.1c-1.6,1.7-1.6,4.4,0.1,6l15.4,14.8c0.8,0.8,1.9,1.2,2.9,1.2c1.1,0,2.1-0.4,2.9-1.2l15.4-14.8
	C52,25.9,52.1,23.2,50.5,21.5z"/>
</svg>
