<?xml version="1.0" encoding="utf-8"?>
<!-- Generator: Adobe Illustrator 19.1.0, SVG Export Plug-In . SVG Version: 6.00 Build 0)  -->
<!DOCTYPE svg PUBLIC "-//W3C//DTD SVG 1.1//EN" "http://www.w3.org/Graphics/SVG/1.1/DTD/svg11.dtd">
<svg version="1.1" id="レイヤー_1" xmlns="http://www.w3.org/2000/svg" xmlns:xlink="http://www.w3.org/1999/xlink" x="0px"
	 y="0px" width="64px" height="64px" viewBox="0 0 64 64" enable-background="new 0 0 64 64" xml:space="preserve">
<g>
	<rect x="3.6" y="42.7" fill="#33337B" width="14.2" height="21.3"/>
	<rect x="24.9" y="28.4" fill="#33337B" width="14.2" height="35.6"/>
	<rect x="46.2" y="42.7" fill="#33337B" width="14.2" height="21.3"/>
	<path fill="#33337B" d="M42.1,7.6h-6.9c-0.2,0-0.4-0.2-0.5-0.4l-2.1-6.9c-0.1-0.5-0.8-0.5-1.2,0l-2.1,6.9c0,0.2-0.3,0.4-0.5,0.4
		h-6.9c-0.5,0-0.7,0.8-0.3,1.1l5.6,4.3c0.2,0.2,0.3,0.5,0.2,0.7l-2.1,6.9c-0.2,0.6,0.4,1,0.8,0.7l5.6-4.3c0.2-0.1,0.5-0.1,0.7,0
		l5.6,4.3c0.5,0.3,1-0.2,0.8-0.7l-2.1-6.9c-0.1-0.3,0-0.6,0.2-0.7l5.6-4.3C42.9,8.3,42.7,7.6,42.1,7.6z"/>
	<path fill="#33337B" d="M63.5,21.9h-6.9c-0.2,0-0.4-0.2-0.5-0.4l-2.1-6.9c-0.1-0.5-0.8-0.5-1.2,0l-2.1,6.9c0,0.2-0.3,0.4-0.5,0.4
		h-6.9c-0.5,0-0.7,0.8-0.3,1.1l5.6,4.3c0.2,0.2,0.3,0.5,0.2,0.7l-2.1,6.9c-0.2,0.6,0.4,1,0.8,0.7l5.6-4.3c0.2-0.1,0.5-0.1,0.7,0
		l5.6,4.3c0.5,0.3,1-0.2,0.8-0.7l-2.1-6.9c-0.1-0.3,0-0.6,0.2-0.7l5.6-4.3C64.2,22.5,64,21.9,63.5,21.9z"/>
	<path fill="#33337B" d="M20.8,21.9h-6.9c-0.2,0-0.4-0.2-0.5-0.4l-2.1-6.9c-0.1-0.5-0.8-0.5-1.2,0l-2.1,6.9c0,0.2-0.3,0.4-0.5,0.4
		H0.5c-0.5,0-0.7,0.8-0.3,1.1l5.6,4.3C6,27.4,6.1,27.7,6,27.9l-2.1,6.9c-0.2,0.6,0.4,1,0.8,0.7l5.6-4.3c0.2-0.1,0.5-0.1,0.7,0
		l5.6,4.3c0.5,0.3,1-0.2,0.8-0.7l-2.1-6.9c-0.1-0.3,0-0.6,0.2-0.7l5.6-4.3C21.5,22.5,21.3,21.9,20.8,21.9z"/>
</g>
</svg>
