<?xml version="1.0" encoding="utf-8"?>
<!-- Generator: Adobe Illustrator 19.1.0, SVG Export Plug-In . SVG Version: 6.00 Build 0)  -->
<!DOCTYPE svg PUBLIC "-//W3C//DTD SVG 1.1//EN" "http://www.w3.org/Graphics/SVG/1.1/DTD/svg11.dtd">
<svg version="1.1" id="レイヤー_1" xmlns="http://www.w3.org/2000/svg" xmlns:xlink="http://www.w3.org/1999/xlink" x="0px"
	 y="0px" width="64px" height="64px" viewBox="0 0 64 64" enable-background="new 0 0 64 64" xml:space="preserve">
<path fill="#33337B" d="M63,58.2L51.1,46.3c3.8-4.9,6.2-11,6.2-17.7C57.3,12.8,44.4,0,28.6,0S0,12.8,0,28.6
	c0,15.8,12.8,28.6,28.6,28.6c6.7,0,12.8-2.3,17.7-6.2L58.2,63c0.7,0.7,1.5,1,2.4,1c0.9,0,1.7-0.3,2.4-1C64.3,61.7,64.3,59.6,63,58.2
	z M6.7,28.6c0-12.1,9.8-21.9,21.9-21.9s21.9,9.8,21.9,21.9s-9.8,21.9-21.9,21.9S6.7,40.7,6.7,28.6z"/>
</svg>
