<?xml version="1.0" encoding="utf-8"?>
<!-- Generator: Adobe Illustrator 19.1.0, SVG Export Plug-In . SVG Version: 6.00 Build 0)  -->
<!DOCTYPE svg PUBLIC "-//W3C//DTD SVG 1.1//EN" "http://www.w3.org/Graphics/SVG/1.1/DTD/svg11.dtd">
<svg version="1.1" id="レイヤー_1" xmlns="http://www.w3.org/2000/svg" xmlns:xlink="http://www.w3.org/1999/xlink" x="0px"
	 y="0px" width="64px" height="64px" viewBox="0 0 64 64" enable-background="new 0 0 64 64" xml:space="preserve">
<path shape-rendering="auto" color-rendering="auto" image-rendering="auto" color-interpolation="sRGB" fill="#33337B" d="M0.4,0.4
	C0.1,0.7,0,1.1,0,1.5l0.4,28.9c0,0.4,0.2,0.7,0.4,1L33,63.6c0.6,0.6,1.5,0.6,2,0l28.5-28.5c0.6-0.6,0.6-1.5,0-2L31.4,0.8
	c-0.3-0.3-0.6-0.4-1-0.4L1.5,0C1.1,0,0.7,0.2,0.4,0.4 M11.6,11.6c2.3-2.3,5.9-2.3,8.1,0c2.3,2.3,2.3,5.9,0,8.1
	c-2.3,2.3-5.9,2.3-8.1,0C9.4,17.5,9.4,13.9,11.6,11.6"/>
</svg>
