<?xml version="1.0" encoding="utf-8"?>
<!-- Generator: Adobe Illustrator 19.1.0, SVG Export Plug-In . SVG Version: 6.00 Build 0)  -->
<!DOCTYPE svg PUBLIC "-//W3C//DTD SVG 1.1//EN" "http://www.w3.org/Graphics/SVG/1.1/DTD/svg11.dtd">
<svg version="1.1" id="レイヤー_1" xmlns="http://www.w3.org/2000/svg" xmlns:xlink="http://www.w3.org/1999/xlink" x="0px"
	 y="0px" width="64px" height="64px" viewBox="0 0 64 64" enable-background="new 0 0 64 64" xml:space="preserve">
<path fill="#22A2DB" d="M64,12.1c0,0-2.5,1.5-6.9,1.9c4.5-3.1,5.3-7.5,5.3-7.5s-2.8,2.3-8.1,3.3c-2.5-2.6-6-4.2-9.8-4.2
	c-7.5,0-13.6,6.1-13.6,13.6c0,1.1,0.1,2.1,0.4,3.1C19.1,20.9,10.9,16.4,3.8,8.4c0,0-5.4,10,4.3,17.7c-2.1-0.4-4.2-1-6.3-1.8
	c0,0,0,10.2,10.5,13.1c-1.8,0.3-3.4,0.3-5.5,0c0,0,2.7,9,12.5,9.5C13,51.1,7.3,53,0,52.5c0,0,8.2,6.2,20.8,6
	c5.7-0.1,13.2-1.1,19.7-5.4C55.4,43.1,57.7,26.6,58,19.9c0-0.3,0-0.5,0-0.8c0-0.2,0-0.4,0-0.6C62.6,16.1,64,12.1,64,12.1z"/>
</svg>
